<svg xmlns="http://www.w3.org/2000/svg" viewBox="-1897.208 -1839.865 122.707 107.736">
  <defs>
    <style>
      .cls-1 {
        fill: rgba(175,175,175,0.63);
      }
    </style>
  </defs>
  <g id="blank-rounded-speech-balloon" transform="translate(-1897.208 -1839.865)">
    <g id="Group_1" data-name="Group 1" transform="translate(0 0)">
      <path id="Path_2" data-name="Path 2" class="cls-1" d="M90.3,3.248H32.536A32.444,32.444,0,0,0,.129,35.655l0,19.9C-.143,63.177-.959,101.637,10,110.249a3.459,3.459,0,0,0,5.455-1.752c1.659-5.679,7.965-20.41,17.082-20.41H90.3A32.444,32.444,0,0,0,122.707,55.68V35.658A32.443,32.443,0,0,0,90.3,3.248Zm25.5,52.43A25.521,25.521,0,0,1,90.3,81.172H32.536c-11,0-17.875,11.283-21.239,18.815C7.637,90.3,6.531,69.978,7.04,55.676V35.655A25.521,25.521,0,0,1,32.534,10.162H90.295a25.521,25.521,0,0,1,25.494,25.494V55.678Z" transform="translate(0 -3.248)"/>
    </g>
  </g>
</svg>
