<svg xmlns="http://www.w3.org/2000/svg" viewBox="-1911.049 -1627.549 158.649 123.162">
  <defs>
    <style>
      .cls-1 {
        fill: rgba(175,175,175,0.63);
      }
    </style>
  </defs>
  <g id="hands-holding-heart" transform="translate(-1911.049 -1627.549)">
    <path id="Path_4" data-name="Path 4" class="cls-1" d="M43.076,32.813A8.507,8.507,0,0,0,30.8,31.956,8.556,8.556,0,0,0,29.79,43.439L45.064,63.274a9.029,9.029,0,0,1-9.332-3.158L21.694,42.137l.322-32.407A9.634,9.634,0,0,0,2.771,8.975L.045,48.728A19.35,19.35,0,0,0,3.887,61.682l25.506,33.9-1.568,18.063a2.684,2.684,0,0,0,2.674,2.916h0l38.42-.052a2.684,2.684,0,0,0,2.681-2.658l.359-36.9A25.232,25.232,0,0,0,66.149,60.6ZM66.26,111.141l-32.834.045,1.4-16.167a2.683,2.683,0,0,0-.529-1.846L8.177,58.454A13.98,13.98,0,0,1,5.4,49.1L8.127,9.342a4.266,4.266,0,0,1,4.248-3.974q.158,0,.317.011a4.273,4.273,0,0,1,3.955,4.3l-.331,33.346a2.682,2.682,0,0,0,.569,1.679L31.5,63.42a14.412,14.412,0,0,0,19.232,3.127,2.684,2.684,0,0,0,.643-3.875L34.043,40.164a3.157,3.157,0,0,1,.375-4.237,3.139,3.139,0,0,1,4.528.316L62.019,64.031a19.856,19.856,0,0,1,4.573,12.862Z" transform="translate(42.09 123.162) rotate(-90)"/>
    <path id="Path_5" data-name="Path 5" class="cls-1" d="M172.253,30.2A30.2,30.2,0,0,0,120.692,8.846l-1.021,1.021L118.65,8.846A30.2,30.2,0,1,0,75.936,51.56L117.773,93.4a2.685,2.685,0,0,0,3.8,0l41.837-41.836A30,30,0,0,0,172.253,30.2ZM119.672,87.7,79.732,47.764a24.835,24.835,0,0,1,35.122-35.121l2.919,2.919a2.684,2.684,0,0,0,3.8,0l2.919-2.919A24.835,24.835,0,1,1,159.61,47.764Z" transform="translate(-67.104 0)"/>
  </g>
</svg>
