<svg xmlns="http://www.w3.org/2000/svg" viewBox="-2140.433 -1650.235 139.347 140.294">
  <defs>
    <style>
      .cls-1 {
        fill: rgba(175,175,175,0.63);
      }
    </style>
  </defs>
  <g id="hands-holding-heart" transform="translate(-2140.433 -1650.235)">
    <path id="Path_3" data-name="Path 3" class="cls-1" d="M291.323,146.919l-2.5-36.412a8.824,8.824,0,0,0-17.628.691l.295,29.684L258.634,157.35a8.268,8.268,0,0,1-8.548,2.893l13.991-18.168a7.837,7.837,0,0,0-.929-10.517,7.793,7.793,0,0,0-11.241.785l-21.135,25.453a23.111,23.111,0,0,0-5.323,14.97l.328,33.8A2.459,2.459,0,0,0,228.232,209l35.193.048h0a2.458,2.458,0,0,0,2.449-2.671l-1.436-16.545L287.8,158.784A17.72,17.72,0,0,0,291.323,146.919Zm-7.448,8.909-23.929,31.8a2.458,2.458,0,0,0-.485,1.691l1.286,14.808-30.076-.041-.3-31.37a18.186,18.186,0,0,1,4.189-11.782l21.135-25.453a2.876,2.876,0,0,1,4.148-.289,2.891,2.891,0,0,1,.343,3.881L244.3,159.692a2.458,2.458,0,0,0,.589,3.549,13.2,13.2,0,0,0,17.616-2.864L275.9,143.23a2.458,2.458,0,0,0,.521-1.537l-.3-30.543a3.907,3.907,0,0,1,7.8-.306l2.5,36.412A12.806,12.806,0,0,1,283.874,155.828Z" transform="translate(-152.017 -68.756)"/>
    <path id="Path_4" data-name="Path 4" class="cls-1" d="M40.9,132.343a7.793,7.793,0,0,0-11.24-.785,7.837,7.837,0,0,0-.929,10.518l13.991,18.168a8.271,8.271,0,0,1-8.548-2.893L21.318,140.883l.295-29.684a8.824,8.824,0,0,0-17.627-.691l-2.5,36.412a17.724,17.724,0,0,0,3.519,11.865L28.37,189.834l-1.436,16.545a2.458,2.458,0,0,0,2.449,2.671h0L64.579,209a2.459,2.459,0,0,0,2.455-2.435l.328-33.8a23.111,23.111,0,0,0-5.323-14.97Zm21.237,71.745-30.075.041,1.286-14.809a2.457,2.457,0,0,0-.485-1.691l-23.929-31.8a12.805,12.805,0,0,1-2.543-8.573l2.5-36.412a3.907,3.907,0,0,1,3.892-3.64q.145,0,.29.01a3.914,3.914,0,0,1,3.622,3.935l-.3,30.543a2.457,2.457,0,0,0,.521,1.537L30.3,160.378a13.2,13.2,0,0,0,17.616,2.864,2.459,2.459,0,0,0,.589-3.549L32.63,139.076a2.892,2.892,0,0,1,.343-3.881,2.875,2.875,0,0,1,4.148.289l21.135,25.453a18.187,18.187,0,0,1,4.189,11.782Z" transform="translate(-1.447 -68.757)"/>
    <path id="Path_5" data-name="Path 5" class="cls-1" d="M163.418,27.665A27.666,27.666,0,0,0,116.189,8.1l-.935.935-.935-.935A27.665,27.665,0,1,0,75.194,47.227l38.321,38.321a2.459,2.459,0,0,0,3.478,0l38.321-38.321A27.482,27.482,0,0,0,163.418,27.665ZM115.255,80.333,78.671,43.75a22.748,22.748,0,0,1,32.171-32.17l2.674,2.674a2.459,2.459,0,0,0,3.477,0l2.673-2.674a22.748,22.748,0,1,1,32.171,32.171Z" transform="translate(-45.581 0)"/>
  </g>
</svg>
