<svg xmlns="http://www.w3.org/2000/svg" viewBox="-503.97 -1576.356 124.006 124.458">
  <defs>
    <style>
      .cls-1 {
        fill: #fff;
      }
    </style>
  </defs>
  <path id="heart-02" class="cls-1" d="M118.653,16.17c-15.18,0-25.539,10.447-30.061,24.576a2.8,2.8,0,0,1-1.249.325,2.726,2.726,0,0,1-1.249-.331C81.572,26.611,71.212,16.168,56.034,16.168c-17.8,0-29.158,16.872-29.158,34.668,0,.362.011,1.662.029,3.105.57,34.8,48.035,77,58.711,85.815.322.262.582.476.818.666a2.128,2.128,0,0,0,1.82,0c.236-.189.5-.406.818-.666,10.675-8.815,61.214-49.509,61.783-84.312.018-1.443.029-2.743.029-3.105C150.885,34.545,136.453,16.17,118.653,16.17Z" transform="translate(-530.846 -1592.524)"/>
</svg>
