<svg xmlns="http://www.w3.org/2000/svg" viewBox="-2118.494 -1849.039 94.862 126.319">
  <defs>
    <style>
      .cls-1 {
        fill: rgba(175,175,175,0.63);
      }
    </style>
  </defs>
  <g id="paper-note" transform="translate(-2118.494 -1849.039)">
    <g id="Group_2" data-name="Group 2" transform="translate(0)">
      <path id="Path_6" data-name="Path 6" class="cls-1" d="M138.675,0H75.951a4.1,4.1,0,0,0-2.9,1.2L49.118,25.135a4.1,4.1,0,0,0-1.2,2.9v94.18a4.1,4.1,0,0,0,4.1,4.1h86.655a4.1,4.1,0,0,0,4.1-4.1V4.1A4.1,4.1,0,0,0,138.675,0ZM71.848,11.514V23.933H59.43Zm62.723,109.094H53.627V29.644H73.456a4.1,4.1,0,0,0,4.1-4.1V5.711h59.508v114.9Z" transform="translate(-47.916)"/>
      <path id="Path_7" data-name="Path 7" class="cls-1" d="M116.512,157.729c-2.266,0-4.1,1.324-4.1,2.958s1.837,2.958,4.1,2.958h12.146c2.266,0,4.1-1.324,4.1-2.958s-1.837-2.958-4.1-2.958Z" transform="translate(-91.239 -105.953)"/>
      <path id="Path_8" data-name="Path 8" class="cls-1" d="M184.512,163.645h21.993c2.266,0,4.1-1.324,4.1-2.958s-1.837-2.958-4.1-2.958H184.512c-2.266,0-4.1,1.324-4.1,2.958S182.246,163.645,184.512,163.645Z" transform="translate(-136.917 -105.953)"/>
      <path id="Path_9" data-name="Path 9" class="cls-1" d="M116.512,213.645h25.276c2.266,0,4.1-1.324,4.1-2.958s-1.837-2.958-4.1-2.958H116.512c-2.266,0-4.1,1.325-4.1,2.958S114.246,213.645,116.512,213.645Z" transform="translate(-91.239 -141.626)"/>
      <path id="Path_10" data-name="Path 10" class="cls-1" d="M233.375,207.729h-8.863c-2.266,0-4.1,1.325-4.1,2.958s1.837,2.958,4.1,2.958h8.863c2.266,0,4.1-1.324,4.1-2.958S235.641,207.729,233.375,207.729Z" transform="translate(-163.787 -141.626)"/>
      <path id="Path_11" data-name="Path 11" class="cls-1" d="M127.016,257.729h-10.5c-2.266,0-4.1,1.324-4.1,2.958s1.837,2.958,4.1,2.958h10.5c2.266,0,4.1-1.324,4.1-2.958S129.282,257.729,127.016,257.729Z" transform="translate(-91.239 -177.299)"/>
      <path id="Path_12" data-name="Path 12" class="cls-1" d="M203.147,257.729H179.512c-2.266,0-4.1,1.325-4.1,2.958s1.837,2.958,4.1,2.958h23.635c2.266,0,4.1-1.324,4.1-2.958S205.413,257.729,203.147,257.729Z" transform="translate(-133.558 -177.299)"/>
    </g>
  </g>
</svg>
