<svg xmlns="http://www.w3.org/2000/svg" xmlns:xlink="http://www.w3.org/1999/xlink" viewBox="-871.792 -1855.503 184.001 184.455">
  <defs>
    <style>
      .cls-1 {
        fill: #fff;
      }

      .cls-2 {
        filter: url(#heart-02);
      }
    </style>
    <filter id="heart-02" x="-871.792" y="-1855.503" width="184.001" height="184.455" filterUnits="userSpaceOnUse">
      <feOffset dy="4" input="SourceAlpha"/>
      <feGaussianBlur stdDeviation="10" result="blur"/>
      <feFlood flood-color="red" flood-opacity="0.157"/>
      <feComposite operator="in" in2="blur"/>
      <feComposite in="SourceGraphic"/>
    </filter>
  </defs>
  <g class="cls-2" transform="matrix(1, 0, 0, 1, 0, 0)">
    <path id="heart-02-2" data-name="heart-02" class="cls-1" d="M118.65,16.17c-15.179,0-25.538,10.447-30.06,24.576a2.8,2.8,0,0,1-1.249.325,2.725,2.725,0,0,1-1.249-.331C81.57,26.611,71.21,16.168,56.032,16.168c-17.8,0-29.156,16.872-29.156,34.667,0,.362.011,1.662.029,3.1.57,34.8,48.033,77,58.708,85.813.322.262.582.476.818.666a2.128,2.128,0,0,0,1.82,0c.236-.189.5-.406.818-.666,10.675-8.814,61.211-49.508,61.781-84.31.018-1.443.029-2.743.029-3.1C150.88,34.544,136.448,16.17,118.65,16.17Z" transform="translate(-868.67 -1845.67)"/>
  </g>
</svg>
